{"title":"Flashdance 1983 DVDrip English Klam","uid":5871171,"size":1473449875,"categoryP":"video","categoryS":"movies","magnet":"?xt=urn:btih:f0101d41fea491d2ff47ea04c83f787af9f4d96a&amp;dn=Flashdance+1983+DVDrip+English+Klam&amp;tr=udp%3A%2F%2Ftracker.openbittorrent.com%3A80&amp;tr=udp%3A%2F%2Fopen.demonii.com%3A1337&amp;tr=udp%3A%2F%2Ftracker.coppersurfer.tk%3A6969&amp;tr=udp%3A%2F%2Fexodus.desync.com%3A6969","seeders":1,"leechers":0,"uploader":"Klambake","files":-1,"time":1286413105,"description":"With: Jennifer Beals, Michael Nouri en Lilia Skala\n\nAlex Owens is a female dynamo: steel worker by day, exotic dancer by night. Her dream is to get into a real dance company, though, and with encouragement from her boss/boyfriend, she may get her chance. The city of Pittsburgh co-stars. What a feeling! \n\nGeneral:\n\nComplete name                    : Klambake\\Flashdance\\Flash.avi\nFormat                           : AVI\nFormat/Info                      : Audio Video Interleave\nFile size                        : 1.37 GiB\nDuration                         : 1h 30mn\nOverall bit rate                 : 2 163 Kbps\n\nVideo:\n\nFormat                           : MPEG-4 Visual\nFormat profile                   : Simple@L3\nFormat settings, BVOP            : No\nFormat settings, QPel            : No\nFormat settings, GMC             : No warppoints\nFormat settings, Matrix          : Default (H.263)\nCodec ID                         : XVID\nCodec ID/Hint                    : XviD\nDuration                         : 1h 30mn\nBit rate                         : 1 704 Kbps\nWidth                            : 720 pixels\nHeight                           : 576 pixels\nDisplay aspect ratio             : 5:4\nFrame rate                       : 25.000 fps\nStandard                         : PAL\nColor space                      : YUV\nChroma subsampling               : 4:2:0\nBit depth                        : 8 bits\nScan type                        : Progressive\nBits/(Pixel*Frame)               : 0.164\nStream size                      : 1.08 GiB (79%)\nWriting library                  : XviD 1.1.2 (UTC 2006-11-01)\n\nAudio:\n\nFormat                           : AC-3\nFormat/Info                      : Audio Coding 3\nMode extension                   : CM (complete main)\nCodec ID                         : 2000\nDuration                         : 1h 30mn\nBit rate mode                    : Constant\nBit rate                         : 448 Kbps\nChannel(s)                       : 6 channels\nChannel positions                : Front: L C R, Side: L R, LFE\nSampling rate                    : 48.0 KHz\nBit depth                        : 16 bits\nStream size                      : 291 MiB (21%)\nAlignment                        : Aligned on interleaves\nInterleave, duration             : 32 ms (0.80 video frame)\nInterleave, preload duration     : 96 ms","torrent":{"xt":"urn:btih:f0101d41fea491d2ff47ea04c83f787af9f4d96a","amp;dn":"Flashdance+1983+DVDrip+English+Klam","amp;tr":["udp%3A%2F%2Ftracker.openbittorrent.com%3A80","udp%3A%2F%2Fopen.demonii.com%3A1337","udp%3A%2F%2Ftracker.coppersurfer.tk%3A6969","udp%3A%2F%2Fexodus.desync.com%3A6969"],"infoHash":"f0101d41fea491d2ff47ea04c83f787af9f4d96a","infoHashBuffer":{"type":"Buffer","data":[240,16,29,65,254,164,145,210,255,71,234,4,200,63,120,122,249,244,217,106]},"announce":[],"urlList":[]}}